<svg width="198" height="23" viewBox="0 0 198 23" fill="none" xmlns="http://www.w3.org/2000/svg">
<g clip-path="url(#clip0_3_584)">
<path d="M186.398 7.2044C186.506 7.26756 186.62 7.31633 186.739 7.34957C186.884 7.38668 187.021 7.45121 187.143 7.53996C187.325 7.75095 187.476 7.9885 187.593 8.24514C188.005 9.0268 188.601 10.3951 189.381 12.35L191.464 17.2237C191.096 18.2016 190.674 19.1565 190.2 20.0835C190.176 20.1483 190.135 20.2044 190.081 20.2448C190.027 20.2852 189.963 20.3081 189.897 20.3107C189.704 20.2787 189.525 20.1824 189.388 20.036C189.067 19.7124 188.649 19.5139 188.205 19.4738C187.951 19.5157 187.711 19.6223 187.506 19.7842C187.344 19.9398 187.213 20.1281 187.122 20.3377C187.031 20.5473 186.981 20.774 186.976 21.0042C186.981 21.2306 187.065 21.4471 187.213 21.6128C187.423 21.866 187.703 22.0456 188.014 22.1276C188.388 22.1834 188.596 22.2119 188.634 22.2119C188.992 22.2166 189.346 22.1505 189.68 22.017C189.869 21.9282 190.038 21.7982 190.176 21.6357C190.579 21.1667 190.917 20.6404 191.179 20.0723L192.479 16.9127L194.365 12.1462L195.18 9.83751C195.572 8.82059 195.831 8.15822 195.959 7.8504C196.018 7.75925 196.092 7.67875 196.176 7.61199C196.381 7.54945 196.616 7.48022 196.886 7.40987C197.042 7.37377 197.193 7.31751 197.336 7.24237C197.336 7.14913 197.349 7.07822 197.349 7.02797C197.351 6.8787 197.343 6.72947 197.325 6.5813C197.13 6.5813 196.837 6.61759 196.446 6.66561C196.005 6.72941 195.56 6.76892 195.114 6.78398L194.503 6.76109L193.592 6.70023C193.493 6.70023 193.331 6.70972 193.107 6.72479C193.087 6.82549 193.076 6.92761 193.072 7.0302C193.071 7.08903 193.075 7.14783 193.083 7.20608L193.117 7.37358L193.482 7.46905C193.728 7.49198 193.972 7.53397 194.212 7.59468C194.354 7.65982 194.486 7.74594 194.604 7.8504C194.641 7.97896 194.663 8.11135 194.672 8.24514C194.67 8.35081 194.655 8.45581 194.629 8.5578C194.576 8.78114 194.23 9.76753 193.591 11.517C193.057 12.9951 192.767 13.7818 192.723 13.8771L192.085 12.4941C191.636 11.5523 191.196 10.5222 190.767 9.40368L190.22 8.23118C190.166 8.07425 190.121 7.91432 190.085 7.75213C190.097 7.70924 190.121 7.67086 190.153 7.64128C190.185 7.6117 190.225 7.59208 190.267 7.58463C190.357 7.56079 190.447 7.54215 190.539 7.5288C190.628 7.50925 190.748 7.48692 190.922 7.4618C191.009 7.45349 191.096 7.43761 191.181 7.41434C191.195 7.31886 191.215 7.09553 191.238 6.74434C191.19 6.68768 191.138 6.63607 191.081 6.59024L189.478 6.69744H188.891C188.464 6.69744 187.907 6.6738 187.222 6.62653C187.109 6.62653 187.009 6.61313 186.918 6.61313C186.698 6.61865 186.479 6.64236 186.263 6.68404C186.294 6.84819 186.327 7.01904 186.366 7.19882M167.841 15.8351C167.856 16.0026 167.87 16.1495 167.884 16.2773L168.213 16.2885C169.048 16.2085 169.759 16.1685 170.345 16.1685L171.574 16.1796C172.242 16.2448 172.618 16.2773 172.7 16.2773C172.787 16.278 172.873 16.2736 172.96 16.2639C173.01 16.1227 173.041 15.9745 173.051 15.824C173.046 15.728 173.034 15.6324 173.016 15.5381C172.817 15.4407 172.607 15.3702 172.391 15.3282C172.21 15.289 172.032 15.2387 171.857 15.1774L171.803 14.9982C171.785 14.8958 171.774 14.792 171.771 14.6878L171.758 12.8938L171.726 9.46231C171.763 9.35443 171.786 9.2417 171.794 9.12731V9.01564L171.772 8.8956C171.772 8.82399 171.775 8.75243 171.782 8.6812C171.951 8.32744 172.224 8.03984 172.561 7.861C173.038 7.54702 173.593 7.38717 174.157 7.4015C174.585 7.38968 175.005 7.51687 175.361 7.76553C175.68 7.98654 175.914 8.31896 176.021 8.70353C176.137 9.46616 176.179 10.2392 176.145 11.0106L176.105 11.6566L176.116 14.0814C176.128 14.4055 176.109 14.7299 176.059 15.0501C176.032 15.1483 175.983 15.2383 175.916 15.3131C175.868 15.3326 175.819 15.3485 175.768 15.3605C175.358 15.3797 174.951 15.4357 174.55 15.528L174.572 16.2449L174.773 16.2812C175.495 16.2098 176.002 16.174 176.294 16.174L177.498 16.1986C178.069 16.1986 178.619 16.2388 179.154 16.2941L179.389 16.3075H180.165C180.188 16.2126 180.203 16.1156 180.21 16.0177C180.201 15.8682 180.17 15.721 180.119 15.5811L179.77 15.461C179.38 15.4624 178.998 15.3503 178.665 15.1372C178.567 15.0419 178.518 14.7311 178.518 14.2048L178.529 13.1406V11.9486L178.552 10.694L178.517 9.16862L178.541 8.82134C178.836 8.35019 179.234 7.9583 179.701 7.67731C180.092 7.4379 180.534 7.30665 180.987 7.29597C181.253 7.29909 181.515 7.36581 181.753 7.49103C181.99 7.61626 182.197 7.79666 182.358 8.01845C182.525 8.28188 182.638 8.57863 182.69 8.89001C182.774 9.352 182.816 9.82125 182.814 10.2914L182.871 13.6571C182.882 14.0838 182.863 14.5108 182.814 14.9345C182.784 15.0414 182.725 15.1369 182.644 15.2092C182.098 15.4281 181.773 15.5638 181.676 15.6191L181.663 15.7866C181.67 15.9483 181.697 16.1084 181.742 16.2634C182.411 16.1919 183.313 16.1562 184.448 16.1562C184.834 16.1526 185.22 16.1712 185.604 16.212C185.909 16.2461 186.092 16.2678 186.151 16.2678C186.303 16.2598 186.453 16.2394 186.602 16.207L186.614 15.9647C186.587 15.8449 186.568 15.7232 186.558 15.6006C186.427 15.5164 186.282 15.4606 186.131 15.4365C185.87 15.3818 185.616 15.2954 185.374 15.1791C185.287 15.0404 185.24 14.8789 185.239 14.7134V13.805C185.261 12.852 185.273 12.1769 185.273 11.7878V9.88943C185.325 8.88418 184.998 7.89785 184.362 7.14187C184.041 6.79845 183.654 6.531 183.226 6.35761C182.798 6.18423 182.339 6.10895 181.881 6.13687C181.468 6.14171 181.057 6.20003 180.658 6.31051C180.302 6.39408 179.959 6.52742 179.638 6.70693C179.151 7.0343 178.701 7.41807 178.296 7.85095C177.975 7.26479 177.493 6.79262 176.912 6.49532C176.375 6.22798 175.788 6.08931 175.193 6.08941C174.634 6.07889 174.078 6.17656 173.553 6.37751C172.905 6.67824 172.303 7.07728 171.766 7.56174L171.742 7.34734L171.753 6.90514L171.72 5.95206V5.75999H171.101C170.814 6.1398 170.468 6.46586 170.076 6.72424C169.542 7.03422 168.963 7.25126 168.362 7.36688C168.167 7.41434 167.997 7.45845 167.855 7.49865V7.98886C168.312 8.08838 168.746 8.28279 169.131 8.5606C169.307 8.79658 169.391 9.09383 169.365 9.39196V9.67782L169.378 10.9553L169.365 12.1836V12.8754C169.336 14.2444 169.315 14.969 169.303 15.049C169.302 15.0813 169.293 15.1127 169.276 15.1399C169.26 15.1671 169.236 15.189 169.208 15.2031C168.874 15.3565 168.514 15.4419 168.149 15.4549C168.063 15.458 167.979 15.4779 167.901 15.5135C167.869 15.614 167.85 15.7183 167.844 15.824M163.758 9.45896C163.667 9.45896 163.513 9.47012 163.297 9.4919C162.996 9.51646 162.763 9.52819 162.598 9.52819L160.027 9.50362C160.041 8.80467 160.283 8.13185 160.714 7.59691C160.986 7.22528 161.386 6.97946 161.829 6.91186C162.272 6.84427 162.723 6.96027 163.085 7.23511C163.416 7.4669 163.671 7.79969 163.815 8.18819C163.972 8.59677 164.056 9.03205 164.062 9.47236H163.757M157.353 11.8592C157.377 12.3573 157.471 12.8488 157.634 13.3176C157.787 13.7997 158.007 14.2553 158.289 14.6693C158.572 15.0994 158.928 15.4727 159.338 15.7715C159.753 16.0715 160.214 16.2941 160.702 16.4292C161.179 16.5539 161.67 16.6103 162.161 16.5967C162.983 16.6095 163.797 16.4318 164.545 16.0763C165.333 15.6686 166.034 15.0972 166.604 14.3969C166.423 14.2305 166.197 14.0444 165.927 13.8385C165.616 14.0836 165.281 14.2938 164.928 14.4655C164.621 14.6 164.302 14.7023 163.976 14.7709C163.591 14.8223 163.202 14.8421 162.814 14.8301L162.161 14.6029C161.832 14.479 161.527 14.2922 161.264 14.0518C160.972 13.7924 160.725 13.4822 160.534 13.135C160.328 12.7504 160.18 12.335 160.095 11.9033C160.001 11.4652 159.952 11.0179 159.949 10.5689C159.95 10.4732 159.957 10.3777 159.971 10.2831H160.941L162.159 10.2585C162.323 10.2585 162.625 10.2791 163.06 10.3177C164.234 10.3891 164.993 10.4249 165.339 10.4249L166.592 10.4478C166.59 9.91445 166.499 9.38553 166.325 8.88443C166.177 8.4763 165.965 8.09641 165.699 7.75995C165.401 7.39837 165.06 7.07809 164.685 6.80687C164.351 6.57463 163.98 6.40671 163.59 6.31107C163.027 6.18231 162.452 6.12402 161.876 6.13743C161.465 6.15578 161.059 6.2328 160.668 6.36634C160.2 6.53555 159.764 6.78686 159.377 7.10949C158.847 7.53321 158.39 8.04921 158.028 8.63485C157.797 9.059 157.623 9.51368 157.509 9.98658C157.399 10.6064 157.346 11.236 157.352 11.8665M148.206 13.8765C147.636 13.0025 147.362 11.954 147.429 10.8983C147.437 10.305 147.536 9.71677 147.721 9.15578C147.859 8.72 148.073 8.31509 148.354 7.96206C148.549 7.71809 148.8 7.52936 149.083 7.41322C149.383 7.28541 149.703 7.2207 150.027 7.22283C150.569 7.20845 151.096 7.40776 151.504 7.78116C151.931 8.20203 152.196 8.77159 152.248 9.38246C152.317 9.90134 152.351 11.4275 152.351 13.9608C152.351 14.0259 152.347 14.1899 152.34 14.4527C152.057 14.6434 151.756 14.8031 151.441 14.9295C151.188 15.0328 150.918 15.0883 150.646 15.0937C150.51 15.0962 150.375 15.0886 150.24 15.0708C149.842 15.0277 149.457 14.9001 149.108 14.6959C148.759 14.4917 148.453 14.2151 148.21 13.8832M144.67 11.2864C144.661 12.1678 144.825 13.0418 145.151 13.8547C145.518 14.6941 146.123 15.3956 146.883 15.8647C147.571 16.2793 148.358 16.4778 149.15 16.4365C149.629 16.4433 150.107 16.3792 150.569 16.2461C151.055 16.0878 151.518 15.8624 151.946 15.5761C152.111 15.4689 152.251 15.3857 152.364 15.3226C152.393 15.6712 152.404 16.0213 152.396 16.3711C152.396 16.4113 152.396 16.5029 152.386 16.6475C152.479 16.6622 152.573 16.6705 152.667 16.6721C152.825 16.6423 152.975 16.5774 153.106 16.4817C153.804 16.1644 154.548 15.9711 155.306 15.9099C155.633 15.8723 155.957 15.8131 156.277 15.733C156.32 15.6303 156.346 15.5209 156.355 15.4091C156.348 15.3191 156.329 15.2305 156.299 15.1461C156.154 15.1117 156.007 15.0919 155.859 15.087C155.52 15.0885 155.183 15.024 154.867 14.8966C154.852 14.4979 154.844 14.1553 154.845 13.8687V12.9659C154.845 12.8542 154.845 12.7314 154.834 12.5957C154.819 12.2607 154.811 11.8866 154.811 11.4712C154.811 11.0558 154.82 10.7454 154.834 10.5181L154.845 10.2663V9.60859C154.825 9.43775 154.813 9.26592 154.81 9.09381C154.81 9.03127 154.81 8.933 154.821 8.80794V8.36574C154.821 8.27808 154.81 8.17535 154.81 8.06647C154.81 7.38195 154.819 6.87889 154.834 6.55897L154.85 5.82867L154.815 4.58582L154.828 3.98896L154.815 3.64167V3.00238C154.793 2.03833 154.782 1.44407 154.782 1.21962V1.00969L154.793 0.832696C154.785 0.706287 154.762 0.58138 154.725 0.460846C154.664 0.447423 154.602 0.439207 154.539 0.436279C154.398 0.453358 154.259 0.481541 154.122 0.520588L153.022 0.788588L152.639 0.872897C152.206 0.993974 151.765 1.07561 151.319 1.11689C151.134 1.11599 150.95 1.14231 150.772 1.19506V1.76679C150.988 1.86464 151.22 1.91773 151.456 1.92312C151.575 1.9191 151.693 1.94909 151.797 2.00988C151.901 2.07067 151.988 2.15996 152.047 2.26817C152.242 2.62513 152.34 3.47808 152.341 4.82702L152.295 6.10672V6.9163L152.274 7.20217C151.609 6.63438 150.782 6.31556 149.924 6.29655H149.292C148.798 6.33369 148.309 6.42578 147.833 6.57125C147.453 6.712 147.094 6.90906 146.768 7.15639C146.129 7.61894 145.605 8.23465 145.24 8.95207C144.875 9.66949 144.68 10.4678 144.671 11.2802M139.503 12.3578C139.531 12.9357 139.497 13.515 139.401 14.0848C139.234 14.4118 138.994 14.6923 138.702 14.9027C138.4 15.1613 138.018 15.297 137.628 15.2846C137.499 15.2831 137.371 15.2524 137.254 15.1946C137.138 15.1368 137.034 15.0532 136.951 14.9496C136.753 14.717 136.648 14.413 136.659 14.1015C136.648 13.763 136.726 13.4279 136.885 13.1328C137.177 12.6925 137.561 12.3266 138.007 12.0619C138.459 11.7491 138.945 11.4931 139.455 11.2992C139.486 11.6499 139.501 12.0007 139.5 12.3517M142.951 14.159L142.612 14.7307C142.552 14.7789 142.478 14.8043 142.402 14.8028C142.337 14.8027 142.273 14.7851 142.215 14.7518C142.158 14.7185 142.11 14.6705 142.076 14.6124C141.972 14.4009 141.927 14.1626 141.948 13.9256V13.5549L141.923 12.1066L141.946 10.1329C141.989 9.29124 141.902 8.44794 141.69 7.63488C141.528 7.18087 141.209 6.80722 140.796 6.58856C140.313 6.3425 139.781 6.2222 139.244 6.23793C138.442 6.21846 137.642 6.33152 136.873 6.57293C136.322 6.79455 135.807 7.10317 135.345 7.48804C134.863 7.85133 134.448 8.30354 134.121 8.82246C133.935 9.18193 133.843 9.58637 133.854 9.99496C133.85 10.0712 133.863 10.1473 133.89 10.2179C133.918 10.2886 133.961 10.3518 134.015 10.4031C134.354 10.3703 134.682 10.2634 134.979 10.0893C135.082 10.0335 135.287 9.94247 135.581 9.82131C135.817 9.74072 136.028 9.59826 136.196 9.40759C136.279 9.21541 136.329 9.00937 136.343 8.79901C136.377 8.45389 136.468 8.11767 136.614 7.80573C136.783 7.54446 137.022 7.34099 137.301 7.2206C137.627 7.06727 137.981 6.98974 138.339 6.99335C138.489 6.97676 138.64 7.00105 138.779 7.06386C138.917 7.12668 139.038 7.22587 139.129 7.3518C139.429 8.04007 139.555 8.79777 139.494 9.55164C139.494 9.86207 139.483 10.1658 139.459 10.4707L136.658 11.6806C136.172 11.9039 135.887 12.0392 135.804 12.0865C135.374 12.3205 134.977 12.6163 134.626 12.9653C134.402 13.1987 134.221 13.4729 134.092 13.7743C133.986 14.0279 133.93 14.3011 133.928 14.5778C133.918 14.8339 133.961 15.0892 134.056 15.3257C134.15 15.5622 134.293 15.7742 134.474 15.9468C134.969 16.3368 135.584 16.5221 136.201 16.4672C136.943 16.4896 137.679 16.3324 138.353 16.0077C138.932 15.7086 139.408 15.2306 139.717 14.6386C139.895 15.1637 140.195 15.6342 140.591 16.0077C140.92 16.2665 141.324 16.4009 141.736 16.389C142.136 16.403 142.526 16.2602 142.831 15.9887C143.197 15.5818 143.443 15.0737 143.541 14.5247L143.529 14.4655C143.514 14.3836 143.469 14.3107 143.405 14.2617L143.146 14.0825L142.951 14.159ZM131.084 13.7682C130.942 13.953 130.786 14.1252 130.617 14.283C130.383 14.4691 130.128 14.6258 129.858 14.7497C129.503 14.8607 129.134 14.9127 128.764 14.9038C128.319 14.8951 127.881 14.7852 127.481 14.5817C127.081 14.3783 126.729 14.0862 126.447 13.7257C125.733 12.8426 125.368 11.7081 125.426 10.5533C125.375 9.59944 125.673 8.66113 126.26 7.92912C126.49 7.6348 126.779 7.39627 127.106 7.23006C127.432 7.06385 127.79 6.97394 128.153 6.96655C128.423 6.95974 128.688 7.04328 128.909 7.20496C129.149 7.41789 129.328 7.69589 129.427 8.0084C129.543 8.42675 129.768 8.80346 130.076 9.09716C130.316 9.30545 130.618 9.41924 130.93 9.41876C131.089 9.42763 131.247 9.39958 131.394 9.33663C131.541 9.27367 131.673 9.17739 131.78 9.05472C131.999 8.77486 132.11 8.41882 132.09 8.05754C132.063 7.79558 131.98 7.54334 131.847 7.31957C131.713 7.0958 131.534 6.90625 131.321 6.765C130.809 6.33396 129.904 6.11975 128.606 6.12235C127.73 6.10826 126.86 6.28352 126.052 6.63714C125.337 6.94966 124.696 7.42276 124.175 8.02292C123.701 8.55927 123.337 9.19197 123.107 9.88161C122.912 10.4474 122.805 11.0424 122.791 11.6437C122.805 12.1762 122.889 12.7042 123.041 13.2126C123.188 13.7804 123.447 14.3096 123.801 14.7659C124.279 15.3507 124.883 15.8081 125.564 16.1003C126.267 16.4273 127.027 16.5984 127.797 16.6028C128.847 16.6461 129.884 16.3415 130.76 15.7324C131.472 15.2502 131.996 14.5175 132.237 13.6666C132.119 13.5377 131.977 13.4358 131.819 13.3673C131.727 13.3252 131.636 13.2767 131.55 13.2221C131.466 13.3198 131.311 13.5058 131.081 13.7939M117.613 12.3824C117.641 12.9602 117.607 13.5395 117.511 14.1093C117.344 14.4364 117.105 14.7168 116.813 14.9273C116.511 15.1852 116.13 15.3206 115.74 15.3086C115.611 15.3073 115.483 15.2766 115.367 15.2188C115.25 15.161 115.146 15.0773 115.063 14.9736C114.865 14.7409 114.76 14.437 114.771 14.1255C114.761 13.7873 114.838 13.4525 114.996 13.1568C115.287 12.7106 115.67 12.3385 116.117 12.0681C116.573 11.7549 117.063 11.4989 117.576 11.3054C117.606 11.656 117.622 12.0072 117.622 12.3578M121.064 14.1652L120.724 14.7369C120.664 14.7851 120.59 14.8105 120.515 14.8089C120.449 14.8086 120.384 14.791 120.327 14.7577C120.27 14.7244 120.221 14.6766 120.186 14.6185C120.083 14.4068 120.039 14.1686 120.06 13.9318V13.5549L120.037 12.1088L120.06 10.1351C120.103 9.29347 120.016 8.45016 119.804 7.63711C119.643 7.18351 119.324 6.80982 118.912 6.59024C118.429 6.34455 117.896 6.22427 117.36 6.2396C116.557 6.22014 115.757 6.3332 114.989 6.5746C114.437 6.79574 113.922 7.1044 113.461 7.48971C112.978 7.85244 112.563 8.30475 112.236 8.82413C112.05 9.18362 111.958 9.58805 111.969 9.99663C111.965 10.0725 111.977 10.1484 112.004 10.219C112.032 10.2895 112.073 10.3529 112.126 10.4048C112.467 10.3744 112.798 10.2686 113.097 10.0943C113.204 10.0385 113.405 9.9475 113.7 9.82634C113.936 9.74574 114.148 9.60328 114.315 9.41261C114.397 9.22019 114.447 9.01423 114.461 8.80403C114.493 8.46298 114.58 8.13019 114.72 7.82025C114.889 7.55887 115.128 7.35536 115.407 7.23511C115.734 7.0816 116.088 7.00406 116.445 7.00787C116.595 6.99129 116.746 7.0156 116.884 7.07842C117.022 7.14125 117.143 7.24045 117.233 7.36632C117.539 8.05267 117.665 8.81202 117.598 9.56616C117.598 9.87659 117.587 10.1803 117.563 10.4852L114.774 11.6856C114.283 11.9089 113.999 12.044 113.919 12.0915C113.489 12.3249 113.092 12.6208 112.741 12.9703C112.518 13.2022 112.338 13.4759 112.21 13.7771C112.104 14.0306 112.049 14.3039 112.046 14.5806C112.036 14.8367 112.08 15.092 112.175 15.3285C112.269 15.565 112.412 15.777 112.593 15.9496C113.088 16.3396 113.703 16.5249 114.32 16.47C115.062 16.4924 115.798 16.3352 116.472 16.0104C117.05 15.7108 117.526 15.233 117.836 14.6414C118.014 15.1665 118.314 15.637 118.709 16.0104C119.038 16.2688 119.441 16.4032 119.853 16.3918C120.253 16.4058 120.643 16.263 120.947 15.9915C121.311 15.5834 121.557 15.0758 121.657 14.5275L121.646 14.4683C121.63 14.3867 121.586 14.314 121.522 14.2645L121.263 14.0853L121.064 14.1652Z" fill="white"/>
<path d="M104.464 8.17208C104.709 7.83711 105.028 7.56806 105.392 7.38718C105.757 7.2063 106.158 7.1188 106.561 7.1319C106.941 7.12219 107.317 7.21061 107.656 7.38929C107.956 7.54691 108.199 7.80144 108.35 8.11513C108.487 8.37403 108.564 8.66267 108.576 8.95821C108.558 9.11546 108.485 9.26016 108.371 9.36412C108.196 9.43329 108.01 9.46573 107.824 9.4596C105.922 9.58652 104.779 9.64999 104.395 9.64999H103.864C103.9 9.09756 104.115 8.57435 104.473 8.1665M110.158 9.91408C110.137 9.36553 109.984 8.83142 109.714 8.3608C109.397 7.77593 108.93 7.29575 108.365 6.97501C107.839 6.68338 107.247 6.5433 106.652 6.5691C106.069 6.55694 105.491 6.66706 104.95 6.89294C104.523 7.10238 104.124 7.37113 103.766 7.69191C103.436 7.98078 103.164 8.33459 102.965 8.7332C102.667 9.28466 102.441 9.8752 102.293 10.4892C102.185 10.9313 102.124 11.3847 102.111 11.8409C102.081 12.828 102.31 13.8049 102.771 14.6666C103.185 15.4197 103.819 16.0133 104.581 16.3595C105.075 16.585 105.608 16.7035 106.147 16.7079C106.571 16.7243 106.995 16.6883 107.411 16.6007C107.97 16.4266 108.501 16.1698 108.99 15.838C109.478 15.519 109.91 15.1146 110.267 14.6426C110.274 14.5832 110.278 14.5233 110.278 14.4634L110.21 13.9843L109.398 14.6895C109.061 14.9369 108.698 15.1417 108.315 15.2998C107.981 15.4003 107.637 15.4566 107.29 15.4673C106.582 15.4699 105.887 15.2644 105.284 14.8743C104.727 14.4779 104.296 13.9161 104.046 13.2613C103.792 12.7077 103.643 12.1074 103.609 11.4942L103.619 10.909V10.789L103.609 10.6689C103.625 10.5019 103.659 10.3374 103.711 10.1787C104.076 10.1458 104.424 10.129 104.771 10.129H105.626L110.147 10.0927L110.158 9.91408ZM91.9812 19.8781C91.9809 19.5712 92.0462 19.2681 92.1724 18.991C92.2987 18.7139 92.4826 18.4699 92.7108 18.2768C93.3003 17.7206 94.067 17.4142 94.8611 17.4175C95.146 17.4175 95.9199 17.4696 97.1829 17.5739C97.5283 17.591 97.8713 17.6426 98.2073 17.728C98.4999 17.8011 98.777 17.9304 99.0245 18.1093C99.2316 18.2745 99.3996 18.4873 99.5153 18.7313C99.633 18.9669 99.6954 19.2283 99.6975 19.494C99.6705 19.9812 99.4904 20.4456 99.1853 20.815C98.7604 21.3375 98.1936 21.7126 97.56 21.8903C96.8415 22.1396 96.0898 22.2683 95.3328 22.2717C94.4024 22.3095 93.4875 22.0141 92.7397 21.4342C92.5092 21.2513 92.3206 21.0169 92.1876 20.7482C92.0547 20.4795 91.9807 20.1832 91.9711 19.8809M93.6615 7.84434C93.8441 7.57531 94.0893 7.35951 94.3741 7.21743C94.6588 7.07534 94.9735 7.01169 95.2884 7.03252C95.6065 7.03293 95.9201 7.11056 96.2045 7.25929C96.489 7.40801 96.7365 7.62377 96.9276 7.88956C97.4235 8.61241 97.6626 9.49346 97.6038 10.3808C97.6697 11.2426 97.4403 12.1007 96.9564 12.8018C96.7589 13.0545 96.509 13.2569 96.2255 13.3937C95.9421 13.5305 95.6326 13.598 95.3205 13.5913C94.9391 13.5847 94.5679 13.4621 94.2523 13.2384C93.8763 12.9763 93.5851 12.6014 93.4169 12.1631C93.1982 11.592 93.0944 10.98 93.1119 10.3652C93.049 9.48612 93.2395 8.60749 93.6589 7.84266M92.9822 17.513C92.2583 17.8414 91.6181 18.3423 91.1128 18.9758C90.8602 19.3125 90.7041 19.7171 90.6625 20.1428C90.6778 20.5436 90.8221 20.9272 91.0722 21.2315C91.4547 21.6786 91.9319 22.026 92.4657 22.246C93.3537 22.5987 94.3015 22.7576 95.2505 22.7128C96.2387 22.7311 97.2216 22.5565 98.1486 22.198C98.8785 21.9364 99.5283 21.4757 100.031 20.8636C100.429 20.3583 100.649 19.7246 100.652 19.0696C100.65 18.58 100.524 18.0997 100.288 17.6772C100.045 17.2203 99.6676 16.8573 99.212 16.642C98.569 16.378 97.8839 16.2441 97.193 16.2473C95.2015 16.1836 93.8485 15.9486 93.1338 15.5421C92.8641 15.3813 92.729 15.2205 92.729 15.0519C92.729 14.8833 92.8604 14.7353 93.1386 14.5449C93.7124 14.1794 94.3724 13.9885 95.0443 13.9938C95.2537 13.9938 95.3819 14.0072 95.4273 14.0072C96.0566 14.0013 96.6753 13.837 97.231 13.5282C97.8159 13.2184 98.3016 12.7368 98.6282 12.1424C98.9447 11.6145 99.1199 11.0075 99.1356 10.3848C99.1126 9.72952 98.9467 9.08844 98.6506 8.51043C98.7213 8.49745 98.7926 8.48924 98.8643 8.48586C99.1648 8.52936 99.4612 8.5996 99.7503 8.6958C100.089 8.80802 100.439 8.87848 100.793 8.90573C100.894 8.91253 100.993 8.87829 101.069 8.81025C101.103 8.77178 101.13 8.72634 101.146 8.67676C101.163 8.62718 101.169 8.57455 101.166 8.52215C101.185 8.24684 101.139 7.97084 101.031 7.71871C100.901 7.64257 100.753 7.60548 100.604 7.61151C100.513 7.61151 100.221 7.64445 99.7306 7.71257C99.2403 7.78069 98.9262 7.81363 98.7986 7.81363C98.6615 7.81579 98.525 7.79583 98.3937 7.75445C98.3403 7.73155 98.1635 7.61877 97.8628 7.41945C97.5308 7.17613 97.1722 6.97519 96.7946 6.82091C96.3469 6.66546 95.8776 6.58867 95.4059 6.59367C94.902 6.57466 94.3997 6.6629 93.9294 6.85304C93.4592 7.04317 93.0308 7.33123 92.6702 7.69973C92.3237 8.04999 92.05 8.47119 91.8662 8.93702C91.6824 9.40285 91.5925 9.90329 91.602 10.4071C91.5921 11.0273 91.7432 11.6386 92.0392 12.1762C92.3353 12.7137 92.7653 13.1572 93.2834 13.4595C93.4928 13.5952 93.6482 13.7001 93.7443 13.7699C93.3535 13.9615 92.9508 14.1253 92.5388 14.2602C92.1778 14.3557 91.8423 14.5357 91.5577 14.7867C91.4409 14.9248 91.3802 15.105 91.3884 15.2892C91.3885 15.5222 91.4687 15.7475 91.6143 15.924C91.9386 16.2606 92.3019 16.5534 92.6959 16.7955C93.1823 17.0099 93.4717 17.1415 93.5643 17.1903C93.4575 17.2551 93.2674 17.3617 92.9902 17.5141M86.3074 15.5639C85.8178 15.7278 85.3062 15.8083 84.7922 15.8023C84.3379 15.8126 83.8868 15.721 83.4693 15.5336C83.0519 15.3461 82.6777 15.0673 82.3721 14.7158C81.698 13.9121 81.349 12.866 81.399 11.7985C81.3208 10.6708 81.6406 9.55234 82.2979 8.65448C82.5645 8.31833 82.8993 8.04843 83.2781 7.86437C83.6568 7.6803 84.07 7.58668 84.4877 7.5903C85.0759 7.5832 85.6533 7.7555 86.1493 8.0861C86.5607 8.3212 86.8868 8.69095 87.0776 9.13856C87.2464 10.0167 87.3076 10.9137 87.2597 11.808C87.2597 13.4744 87.2446 14.5739 87.2143 15.1066C86.9405 15.3169 86.6312 15.4715 86.3026 15.5622M86.7401 7.50487C85.9482 7.1578 85.0938 6.99436 84.2356 7.02582C83.7829 7.07055 83.3356 7.16258 82.9004 7.30052C82.537 7.41619 82.1918 7.587 81.8759 7.80749C81.5191 8.02526 81.1951 8.29715 80.9146 8.61428C80.5381 9.07304 80.2481 9.60217 80.06 10.1737C79.8419 10.8045 79.7314 11.4705 79.7337 12.1413C79.7361 12.9183 79.9045 13.6849 80.2266 14.3852C80.5323 15.0876 81.0257 15.6826 81.6474 16.0987C82.1836 16.4817 82.8141 16.6949 83.4633 16.7129C84.5824 16.6818 85.6838 16.4132 86.7005 15.9234C86.8958 15.8323 87.0954 15.752 87.2987 15.6828V16.8268C87.4918 16.8211 87.6839 16.7973 87.8729 16.7559L89.5121 16.4209C89.7613 16.3733 90.0045 16.3219 90.2417 16.2668C90.2481 16.2073 90.2511 16.1475 90.2507 16.0876V15.8732C90.0686 15.8581 89.9303 15.8486 89.8234 15.8486C89.475 15.8886 89.124 15.8003 88.8311 15.599C88.7563 15.527 88.72 15.2177 88.72 14.646L88.7526 11.885L88.6655 6.69752L88.7109 2.09517C88.7109 1.42517 88.6944 0.821613 88.6655 0.280029L88.0913 0.291196C87.2341 0.57948 86.3488 0.766752 85.4518 0.84953C85.4367 0.936314 85.4288 1.0243 85.4283 1.1125V1.24427L85.6761 1.3163C86.1587 1.39905 86.6131 1.60909 86.9964 1.92656C87.193 2.36126 87.2707 2.84439 87.2207 3.32239L87.2101 5.96499L87.2207 7.36082L87.2101 7.7081C87.1075 7.6679 86.951 7.59644 86.7491 7.4937M72.5953 8.1637C72.8421 7.82736 73.1623 7.5576 73.5291 7.37694C73.8959 7.19629 74.2987 7.10997 74.704 7.1252C75.0835 7.11549 75.4594 7.20391 75.7984 7.3826C76.0985 7.54017 76.342 7.79471 76.4927 8.10843C76.6295 8.36733 76.7069 8.65597 76.7186 8.95151C76.7009 9.10876 76.6278 9.25346 76.5135 9.35742C76.339 9.42659 76.1531 9.45904 75.9666 9.4529C74.0648 9.57983 72.9218 9.64329 72.5376 9.64329H72.0105C72.0464 9.09085 72.2611 8.56765 72.6194 8.1598M78.3022 9.90738C78.2806 9.35879 78.1274 8.82468 77.8568 8.3541C77.541 7.76886 77.0738 7.28856 76.5087 6.96831C75.9819 6.67668 75.3904 6.5366 74.7948 6.5624C74.2125 6.55023 73.6339 6.66035 73.0931 6.88624C72.666 7.09574 72.2679 7.36449 71.9095 7.68521C71.5798 7.97409 71.3076 8.3279 71.1084 8.7265C70.8108 9.27796 70.585 9.8685 70.437 10.4825C70.3284 10.9246 70.2671 11.3779 70.2543 11.8342C70.2249 12.8198 70.4526 13.7953 70.9129 14.656C71.3242 15.4122 71.9587 16.0088 72.7214 16.3567C73.2191 16.5833 73.7557 16.7014 74.2986 16.704C74.7224 16.7204 75.1466 16.6844 75.5623 16.5968C76.1209 16.4227 76.6527 16.1659 77.1416 15.8341C77.6306 15.5189 78.0642 15.1184 78.4235 14.6499C78.43 14.5904 78.433 14.5305 78.4326 14.4706L78.3669 13.9916L77.5534 14.6968C77.2174 14.9444 76.8543 15.1493 76.4719 15.307C76.1385 15.4076 75.7943 15.4639 75.4474 15.4745C74.7388 15.4771 74.0438 15.2717 73.4413 14.8816C72.8838 14.4846 72.4521 13.9231 72.2011 13.2686C71.9414 12.712 71.7884 12.1077 71.7509 11.4897L71.7616 10.9046V10.7845L71.7509 10.6645C71.7668 10.4975 71.8012 10.333 71.8534 10.1743C72.2182 10.1413 72.5665 10.1246 72.9131 10.1246H73.7677L78.2889 10.0883L78.3022 9.90738ZM65.4944 1.96229C65.6996 2.03427 65.8829 2.16203 66.0253 2.33246C66.1227 2.51604 66.1658 2.7257 66.1492 2.93491L66.1166 4.33409L66.1273 7.18159L66.0926 10.0291L66.1054 12.7783C66.1054 14.109 66.0903 14.9181 66.06 15.2054C66.0608 15.3517 66.0109 15.4933 65.9195 15.6041C65.65 15.7235 65.3645 15.7988 65.073 15.8274C64.7971 15.8623 64.5253 15.926 64.2617 16.0178C64.2361 16.0389 64.2159 16.0664 64.2028 16.0976C64.1898 16.1289 64.1843 16.163 64.1869 16.197C64.1853 16.2292 64.1907 16.2613 64.2026 16.2909C64.2146 16.3206 64.2327 16.3471 64.2558 16.3684C64.2937 16.399 64.3372 16.4211 64.3835 16.4335C64.4299 16.4459 64.4782 16.4482 64.5255 16.4404L66.4211 16.345L67.8984 16.4008L69.0825 16.441C69.1478 16.447 69.2128 16.427 69.2646 16.3852C69.2852 16.3588 69.3006 16.3283 69.3097 16.2956C69.3189 16.2629 69.3217 16.2286 69.318 16.1948C69.3204 16.1605 69.3129 16.1264 69.2967 16.0966C69.2804 16.0667 69.2561 16.0426 69.2267 16.0273C68.9621 15.9289 68.6852 15.8714 68.4047 15.8564C67.9418 15.8002 67.6659 15.7012 67.5769 15.5594C67.4705 15.0687 67.436 14.564 67.4743 14.0625C67.4743 14.0152 67.4852 13.6205 67.5069 12.8783C67.5457 11.6187 67.5635 7.71518 67.5603 1.16778V0.510621H67.0262C66.2856 0.773783 65.7264 0.968827 65.3486 1.09575C65.0922 1.17615 64.8615 1.24986 64.65 1.323V1.58597C64.8038 1.66637 65.0772 1.79367 65.4853 1.96731M48.4254 7.15982C48.4245 7.25077 48.4281 7.34172 48.4361 7.43229L48.8538 7.50431C49.0902 7.53062 49.3198 7.60336 49.5305 7.71871C49.6602 7.84943 49.767 8.00287 49.8461 8.17208L51.793 12.2122L53.9294 16.9346C54.0071 16.9477 54.0856 16.9553 54.1644 16.9575C54.2468 16.955 54.329 16.9474 54.4106 16.9346C54.7902 16.3156 55.5913 14.6517 56.8141 11.9431C56.9823 12.3132 57.1645 12.7594 57.361 13.2775C58.0835 15.2551 58.5499 16.4626 58.7604 16.9C58.8288 16.9272 58.9009 16.9432 58.974 16.9474C59.0397 16.9515 59.1047 16.9304 59.1567 16.8882C59.2199 16.8155 59.2678 16.7297 59.2971 16.6364C59.3506 16.5086 59.4195 16.3427 59.5161 16.1339C59.979 15.1464 60.3055 14.4131 60.4957 13.9341L62.5018 8.79741C62.7179 8.38279 63.008 8.01529 63.3564 7.7148C63.6254 7.56479 63.9209 7.4736 64.2248 7.4468C64.2472 7.35254 64.2589 7.25583 64.2595 7.1587C64.2636 7.11684 64.2532 7.07485 64.2302 7.04034C64.2052 7.01088 64.1722 6.9902 64.1356 6.98115H63.5721C63.2784 6.99623 63.0252 7.00405 62.7934 7.00405C62.5012 7.00405 62.1984 7.00405 61.8924 6.98674C61.5863 6.96943 61.4117 6.9672 61.3722 6.9672L60.4647 6.97669H60.2965C60.2266 7.03451 60.1813 7.11875 60.1704 7.21119C60.1764 7.26565 60.1957 7.31757 60.2265 7.36194C60.4295 7.43661 60.6372 7.49649 60.8482 7.54116C61.1682 7.58763 61.4735 7.71109 61.7401 7.90185C61.8019 7.96148 61.8509 8.03409 61.884 8.11492C61.917 8.19574 61.9333 8.28296 61.9319 8.37085C61.9107 8.81119 61.7994 9.24166 61.6056 9.63324C61.268 10.3959 60.9967 11.0704 60.7958 11.6276C60.4136 12.7577 59.9689 13.8636 59.4638 14.9396C59.2754 14.5406 59.0043 13.8416 58.6503 12.8425L57.4502 9.47579C57.3204 9.06206 57.2424 8.81416 57.2115 8.73432C57.1323 8.52431 57.0868 8.30209 57.0769 8.0766C57.0883 7.98059 57.1322 7.89204 57.2008 7.82703C57.5603 7.65615 57.9465 7.55475 58.3406 7.52776C58.5365 7.51538 58.728 7.46223 58.904 7.37143L58.9259 6.99009C58.8442 6.99009 58.7801 6.97669 58.7342 6.97669H58.5419C58.4671 6.97669 58.3721 6.99009 58.261 6.99009L56.8723 6.96552L56.445 6.97669H55.035L54.3941 6.96552C54.2494 6.97215 54.106 6.99632 53.9668 7.03754C53.9295 7.09855 53.9063 7.16772 53.8989 7.23966L53.9096 7.32397C54.1322 7.44928 54.3704 7.54172 54.6173 7.59867C54.8589 7.65393 55.0916 7.74512 55.3084 7.86946C55.4323 8.05594 55.5236 8.26387 55.5782 8.48363C55.6951 8.83426 55.7918 9.0978 55.866 9.27311L56.5572 11.191C56.0222 12.5463 55.4062 13.865 54.7129 15.1395L53.3616 12.2529C52.7075 10.8418 52.2528 9.82438 51.9975 9.20053C51.8745 8.92406 51.7655 8.64096 51.6712 8.35242C51.6548 8.2779 51.647 8.20163 51.6477 8.12518C51.6451 8.04779 51.6613 7.97098 51.6948 7.90193C51.7283 7.83289 51.7781 7.77388 51.8394 7.73044C52.1461 7.59047 52.478 7.52152 52.8126 7.52832C52.8675 7.49411 52.9123 7.44475 52.9422 7.38566C52.9721 7.32657 52.9858 7.26003 52.9819 7.19332C52.9849 7.14134 52.9687 7.09014 52.9365 7.05039C52.8879 7.01203 52.827 6.995 52.7666 7.00293L48.4366 6.98953C48.4366 7.06993 48.426 7.13023 48.426 7.17992M40.6889 15.1345C40.0686 14.3901 39.7585 13.292 39.7585 11.8403C39.7065 10.8142 39.8896 9.78995 40.2926 8.85269C40.5678 8.23994 41.0289 7.73941 41.6043 7.42894C42.0794 7.19241 42.5978 7.06613 43.1239 7.05876C43.7696 7.04643 44.4 7.26421 44.9115 7.67628C45.464 8.1541 45.8599 8.80042 46.0438 9.52492C46.2676 10.2226 46.3905 10.9512 46.4086 11.6868C46.4254 12.5479 46.2636 13.4025 45.9343 14.192C45.6753 14.8416 45.2291 15.3908 44.6578 15.7632C44.1618 16.081 43.5924 16.2516 43.0106 16.2568C42.5684 16.2642 42.1301 16.1677 41.7283 15.9744C41.3265 15.7811 40.9712 15.496 40.6889 15.1401M38.6828 14.2138C39.0698 14.9169 39.6148 15.511 40.2707 15.9446C41.0649 16.4535 41.9782 16.7229 42.9097 16.723C43.5989 16.7471 44.2857 16.6269 44.9297 16.3693C45.5737 16.1118 46.1619 15.7221 46.6597 15.2233C47.1205 14.7922 47.4907 14.2658 47.7468 13.6775C48.003 13.0891 48.1395 12.4515 48.1477 11.8052C48.1589 11.1238 48.0395 10.4469 47.7964 9.81461C47.5533 9.18227 47.1915 8.60726 46.7323 8.1235C46.2797 7.62516 45.7321 7.23162 45.1249 6.9683C44.5177 6.70498 43.8644 6.57773 43.2072 6.59479C42.3469 6.56948 41.4918 6.74257 40.7028 7.10175C40.1762 7.37085 39.7046 7.7442 39.3141 8.20111C38.8859 8.6801 38.5549 9.24475 38.341 9.86104C38.1378 10.4166 38.0294 11.005 38.0205 11.5997C38.0046 12.5202 38.2353 13.427 38.6865 14.2177M25.8103 16.245L25.829 16.3991H26.1115L27.1797 16.3857L29.6163 16.422H30.8004L30.8191 16.1836C30.7897 16.1215 30.7468 16.0674 30.6938 16.0257C30.6409 15.9839 30.5794 15.9556 30.5142 15.943C30.4394 15.9279 30.2824 15.8838 30.0452 15.8112C29.8081 15.7386 29.5998 15.6856 29.4198 15.6437C29.2869 15.6269 29.1609 15.5729 29.055 15.4874C29.0077 15.4082 28.9806 15.3176 28.9765 15.2244C28.9409 14.914 28.9222 14.0694 28.9204 12.6907L28.8878 10.0498C28.8878 9.77896 28.8878 9.45122 28.9097 9.06988C29.3132 8.63342 29.7868 8.27436 30.3091 8.00905C30.7702 7.77767 31.2749 7.6571 31.7864 7.65618C32.0712 7.64195 32.3558 7.68666 32.624 7.78775C32.8922 7.88883 33.1386 8.0443 33.3492 8.24522C33.7409 8.63419 33.9367 9.34421 33.9367 10.3753L33.9148 11.3317V11.9548C33.9148 13.4132 33.9383 14.3283 33.9602 14.6945C33.9745 14.862 33.9818 14.9737 33.9821 15.0295C33.9723 15.1978 33.9263 15.3615 33.8475 15.5086C33.755 15.5869 33.6523 15.651 33.5425 15.699C33.3958 15.742 33.2446 15.7662 33.0923 15.771C32.7994 15.7849 32.5106 15.8492 32.2377 15.9614C32.1952 16.0161 32.1681 16.082 32.1592 16.1518L32.227 16.4036C32.6853 16.4265 33.1884 16.4304 33.7263 16.4148L35.1855 16.3785L36.6735 16.403H36.8871C36.9263 16.3082 36.9492 16.2069 36.955 16.1038V16.0083C36.5702 15.7744 36.1361 15.6434 35.6913 15.627C35.5642 15.5588 35.4613 15.45 35.3975 15.3165C35.3373 14.9655 35.3145 14.6086 35.3297 14.2523C35.3297 13.8995 35.3297 13.589 35.3484 13.3182C35.3671 13.0475 35.3649 12.89 35.3649 12.8392V11.0464C35.4035 10.0979 35.3375 9.14784 35.1684 8.21507C35.0181 7.71431 34.7145 7.27914 34.3042 6.97669C33.8459 6.6207 33.2871 6.43482 32.7163 6.4485C32.45 6.44521 32.1845 6.47805 31.9263 6.54621C31.4907 6.65885 31.0673 6.81787 30.6626 7.02079C30.1698 7.25952 29.704 7.55504 29.274 7.90185C29.1538 7.99732 29.048 8.07772 28.9583 8.14249L28.9524 7.92585V7.1319C28.9524 6.9711 28.9418 6.70366 28.9177 6.32846L28.5348 6.31729C28.2794 6.88073 27.9096 7.37918 27.4511 7.7779C27.0773 8.07667 26.6471 8.28905 26.189 8.401V8.83761C26.602 8.86563 26.9962 9.02851 27.3159 9.30326C27.4707 9.59315 27.5344 9.92655 27.4981 10.2563L27.5216 13.9129C27.5216 14.1585 27.5216 14.3629 27.5087 14.5215L27.4869 14.9497C27.5149 15.1788 27.4651 15.411 27.3464 15.6057C27.0842 15.758 26.7915 15.8435 26.4918 15.8553C26.271 15.8893 26.0523 15.937 25.837 15.9982C25.8185 16.0764 25.8075 16.1562 25.8044 16.2367M15.9373 16.393C16.1424 16.393 16.418 16.393 16.7711 16.3684C17.3586 16.3455 17.898 16.3321 18.3964 16.3321C18.704 16.3321 19.0838 16.3321 19.5345 16.3455C19.5395 16.2228 19.4989 16.1028 19.4213 16.0105C19.2391 15.9001 19.0336 15.8385 18.8231 15.8313C18.7109 15.8328 18.5999 15.8078 18.4982 15.7584C18.3965 15.7089 18.3067 15.6361 18.2356 15.5454C18.0365 14.9572 17.9595 14.3314 18.0097 13.7096C18.0097 12.6856 18.0262 12.0302 18.0551 11.7443H18.4824C18.7162 11.7303 18.9491 11.786 19.1537 11.9051C19.5465 12.2496 19.9067 12.6327 20.2294 13.0491C21.1014 14.0765 21.6478 14.7418 21.8686 15.0452C22.0317 15.2299 22.1444 15.4571 22.1949 15.7029C22.1462 15.7672 22.079 15.8134 22.0032 15.8347C21.5764 15.9153 21.1449 15.9668 20.7117 15.9888C20.6599 16.0203 20.6171 16.0658 20.5878 16.1205V16.2048C20.5894 16.2622 20.6005 16.3188 20.6204 16.3723C20.6961 16.4028 20.7764 16.4189 20.8575 16.4198C20.9405 16.4165 21.0232 16.4089 21.1054 16.3969L24.2406 16.2992H24.4355C24.6677 16.2992 25.0506 16.3232 25.5844 16.3712L25.595 16.2512C25.5911 16.1736 25.5763 16.097 25.5513 16.0239L25.0428 15.9167C24.7136 15.8676 24.3963 15.754 24.1076 15.5817C24.0109 15.5013 23.668 15.1161 23.0831 14.4221C22.9265 14.2315 22.784 14.056 22.6559 13.8956C22.2642 13.4012 21.663 12.7022 20.8522 11.7985C20.6204 11.5355 20.458 11.3484 20.3672 11.2267C20.314 11.1487 20.2529 11.0768 20.1851 11.0123C20.129 10.9508 20.0796 10.883 20.0377 10.8102L20.4447 10.4289C20.7146 10.1884 21.0338 9.89305 21.4023 9.54279C21.9433 9.00948 22.5456 8.54849 23.1953 8.1704C23.5298 8.00063 23.8893 7.89114 24.2587 7.84657L24.7896 7.73937C24.8214 7.67251 24.8395 7.59952 24.843 7.52497V7.36752C24.2795 7.34463 23.7486 7.33123 23.2551 7.33123C22.376 7.33123 21.3425 7.35524 20.1546 7.40325C20.1236 7.47901 20.1045 7.55952 20.098 7.64166L20.1199 7.7617C20.2344 7.7831 20.3476 7.81125 20.4591 7.84601C20.5574 7.87058 20.6412 7.89012 20.7261 7.9052C20.9903 7.94773 21.2456 8.03665 21.4814 8.16817C21.5622 8.26142 21.6136 8.37836 21.6288 8.50317C21.6288 8.6461 21.4787 8.87949 21.1785 9.20332C20.4797 9.85981 19.7407 10.468 18.9663 11.024C18.7434 11.2069 18.4707 11.3109 18.1875 11.3211L18.0636 11.3099C18.0636 11.1195 18.0529 10.9554 18.0529 10.8431V9.94088L18.0855 7.00069L18.0711 4.62722L18.0818 3.20682L18.0492 2.25374L18.0599 1.74063V0.713296C18.0599 0.673096 18.0599 0.562546 18.0706 0.378296H17.7255C17.0205 0.794441 16.5817 1.04141 16.409 1.1192C16.0411 1.27517 15.6603 1.39517 15.2713 1.47766C15.2713 1.56699 15.2585 1.63399 15.2585 1.68145V1.82438C15.6892 1.84096 16.111 1.95749 16.4933 2.16552C16.6454 2.41611 16.7098 2.71402 16.6755 3.00861L16.6568 4.81817L16.7022 6.89684C16.7076 7.15579 16.6998 7.41486 16.6787 7.67293C16.6641 8.13411 16.6568 8.40193 16.6568 8.47637L16.6787 9.31387L16.6568 14.0312C16.6997 14.5781 16.6579 15.1286 16.5329 15.6616C16.4512 15.7933 16.245 15.8715 15.9181 15.8938C15.7275 15.9018 15.5375 15.9204 15.3488 15.9497C15.2868 15.9654 15.229 15.9954 15.1794 16.0373L15.2013 16.3846C15.5474 16.3846 15.7963 16.398 15.9491 16.398" fill="white"/>
<path d="M12.3987 11.6321C12.6442 11.0928 12.9767 10.6018 13.3815 10.1804C13.5084 10.0444 13.6755 9.95702 13.8558 9.93251C13.9115 9.93422 13.9663 9.94876 14.016 9.97511C14.0658 10.0015 14.1094 10.039 14.1437 10.0849C14.231 10.1906 14.2774 10.3267 14.2735 10.4663C14.273 10.7016 14.2316 10.9349 14.1512 11.1547C14.0623 11.3874 13.9392 11.6043 13.7864 11.7973C13.6688 11.9633 13.5286 12.1104 13.3703 12.234C13.1387 12.4088 12.8898 12.5571 12.6279 12.6762C12.3877 12.7862 12.1307 12.8507 11.8689 12.8666C12.0045 12.4385 12.1812 12.0258 12.3961 11.6349M12.943 12.9888C13.1366 12.9326 13.3268 12.864 13.5124 12.7834L14.1415 12.3484C14.3379 12.1743 14.4965 11.9585 14.6067 11.7153C14.7468 11.4473 14.8214 11.1474 14.8241 10.842C14.8336 10.5395 14.7341 10.2442 14.5453 10.0146C14.4666 9.91277 14.3674 9.83028 14.2548 9.77297C14.1422 9.71566 14.0189 9.68492 13.8937 9.68293C13.7013 9.68208 13.511 9.72434 13.3356 9.80688C13.1412 9.90071 12.9612 10.0241 12.8015 10.1731C12.7562 10.2148 12.5442 10.4506 12.1653 10.8806L11.5778 11.7817C11.3866 12.1233 11.2171 12.4777 11.0704 12.8425C10.9603 13.1335 10.8757 13.4344 10.8178 13.7415C10.7512 14.0451 10.7145 14.3551 10.7083 14.6666C10.6798 15.1612 10.808 15.6518 11.0731 16.0625C11.1491 16.1784 11.2508 16.2734 11.3696 16.3392C11.4884 16.405 11.6207 16.4398 11.7552 16.4404C12.1932 16.4241 12.6085 16.2324 12.9152 15.905C13.4417 15.441 13.8308 14.8298 14.0369 14.1429C13.9688 14.1337 13.9003 14.1287 13.8318 14.1278H13.7249C13.637 14.3982 13.5142 14.6547 13.3601 14.8905C13.236 15.0848 13.0952 15.2669 12.9393 15.4343C12.7967 15.5778 12.6347 15.6985 12.4586 15.7928C12.3676 15.8428 12.2659 15.8676 12.1632 15.8648C12.0791 15.8676 11.9956 15.8487 11.9202 15.8097C11.8447 15.7708 11.7796 15.713 11.7306 15.6415C11.5586 15.387 11.4732 15.0795 11.4881 14.7682C11.4892 14.2655 11.5738 13.7668 11.7381 13.2942C12.2245 13.1915 12.6215 13.0904 12.9291 12.9911M7.10736 5.9756C7.17441 5.98103 7.23813 6.00837 7.28949 6.05376C7.32169 6.09655 7.33784 6.15016 7.33489 6.20451C7.31524 6.37163 7.2741 6.53521 7.21258 6.69082L6.9076 7.62324L4.80697 14.1144C4.78133 14.1853 4.75355 14.2551 4.72525 14.3244L4.19435 15.7615C4.13102 15.9008 4.09092 16.0503 4.07577 16.2037C4.07325 16.2388 4.07811 16.274 4.09002 16.3069C4.10192 16.3398 4.12058 16.3696 4.14467 16.3941C4.2138 16.4393 4.29541 16.4589 4.37648 16.4499C4.45985 16.4542 4.54229 16.4301 4.61148 16.3813C4.6958 16.2936 4.75832 16.1857 4.79361 16.0669C4.91503 15.7386 5.14968 15.1723 5.49756 14.3679C5.71006 13.8366 5.95815 13.3217 6.23997 12.8269C6.70644 12.1134 7.21239 11.429 7.75523 10.7773C8.01023 10.4768 8.31176 10.2233 8.64719 10.0274C8.72311 9.98737 8.80678 9.96598 8.89181 9.96489C8.95154 9.96212 9.01104 9.97435 9.06532 10.0006C9.11959 10.0268 9.16706 10.0663 9.20373 10.1156C9.29818 10.2953 9.33822 10.5007 9.31856 10.7047C9.265 11.5006 9.09905 12.2839 8.82611 13.029C8.57192 13.9516 8.20024 14.8342 7.72105 15.6532C7.55494 15.8838 7.42409 15.9982 7.32901 15.9982C7.24461 15.9869 7.16719 15.9434 7.11163 15.876C7.03645 15.7403 6.94169 15.6175 6.83069 15.5119C6.75943 15.4628 6.67505 15.4388 6.58981 15.4433C6.47418 15.4379 6.36051 15.4759 6.26935 15.5505C6.23434 15.5773 6.20541 15.6119 6.18464 15.6517C6.16387 15.6916 6.15176 15.7358 6.14917 15.7811C6.16191 15.9747 6.2448 16.156 6.38098 16.288C6.44043 16.3465 6.51076 16.3915 6.58757 16.4203C6.66439 16.4491 6.74605 16.4611 6.82749 16.4555C7.09438 16.4453 7.3551 16.3687 7.58806 16.2322C7.98556 15.9711 8.32928 15.6299 8.59912 15.2283C9.04131 14.6171 9.38632 13.9354 9.62086 13.2094C9.88196 12.5185 10.0283 11.786 10.0535 11.0436C10.0813 10.6668 9.9825 10.2916 9.77415 9.98276C9.69746 9.87566 9.59845 9.78823 9.48462 9.72709C9.3708 9.66595 9.24515 9.63271 9.1172 9.62989C8.75912 9.64581 8.41648 9.78676 8.14406 10.0302C7.44464 10.6799 6.83364 11.4266 6.3281 12.2496C6.19831 12.4478 6.0947 12.5907 6.01618 12.6963C6.23517 11.9531 6.46857 11.2602 6.72013 10.626C6.9946 9.92313 7.2349 9.20625 7.44011 8.47805C7.56402 8.04981 7.66069 7.73491 7.73013 7.52497L8.1697 6.19055L8.37479 5.6512L8.41111 5.49878H8.17183C7.9897 5.49878 7.4775 5.54847 6.61598 5.6512L6.58447 5.8187C6.75667 5.89317 6.93561 5.94929 7.11858 5.9862M2.05205 11.3244L0.935764 14.1574L0.615301 14.9201C0.4446 15.2616 0.321745 15.6269 0.250506 16.0049C0.247461 16.0498 0.253709 16.0948 0.268826 16.1369C0.283943 16.179 0.307571 16.2172 0.338099 16.2489C0.415917 16.312 0.513417 16.3424 0.611562 16.3344C0.732835 16.3323 0.852497 16.305 0.963538 16.254C1.15973 16.1409 1.34802 16.0135 1.52702 15.8726C1.80047 15.6828 2.05795 15.4689 2.29667 15.2333C2.6661 14.8243 3.01516 14.3957 3.34245 13.9492C3.27557 13.8836 3.20089 13.8273 3.12026 13.7817C2.7523 14.293 2.3355 14.7639 1.87633 15.187C1.74212 15.3364 1.56308 15.4333 1.36892 15.4617L1.27439 15.4483C1.24801 15.4172 1.23207 15.378 1.22899 15.3366C1.56191 14.4876 1.79728 13.9164 1.93508 13.6231L3.16993 10.4869C3.31287 10.4385 3.4615 10.4109 3.61164 10.4049H3.91928C4.18153 10.4077 4.44376 10.3967 4.70495 10.3719C4.77016 10.2382 4.8016 10.0892 4.79628 9.93921L4.06669 9.95428H3.65703C3.6314 9.95428 3.55021 9.94088 3.40066 9.91408C3.43473 9.78464 3.47629 9.65747 3.52511 9.5333C3.7892 8.95584 4.01183 8.35863 4.19114 7.74663V7.6171C4.07754 7.59181 3.96172 7.57908 3.84557 7.57913C3.71632 7.57713 3.58709 7.58478 3.45888 7.60202C3.39622 7.74032 3.34147 7.88239 3.29491 8.02747C3.13468 8.50652 2.98299 8.92081 2.83398 9.26698C2.76615 9.42108 2.68016 9.62878 2.58241 9.88449C2.44355 9.9018 2.00825 9.92078 1.27065 9.94032C1.19936 10.0658 1.15168 10.2043 1.13018 10.3485H1.22845L1.7209 10.3312H2.39281C2.30308 10.6122 2.187 10.937 2.04457 11.3055" fill="white"/>
</g>
<defs>
<clipPath id="clip0_3_584">
<rect width="197.098" height="22.44" fill="white" transform="translate(0.25 0.280029)"/>
</clipPath>
</defs>
</svg>
