<svg width="33" height="32" viewBox="0 0 33 32" fill="none" xmlns="http://www.w3.org/2000/svg">
<g clip-path="url(#clip0_3_58)">
<path d="M10.2467 12.0003H8.0814L5.16406 20.0003H7.30673L7.9014 18.3657H10.4267L11.0214 20.0003H13.1641L10.2467 12.0003ZM8.38806 17.0323L9.16406 14.907L9.94006 17.0337L8.38806 17.0323ZM20.1561 12.0003H15.4894V20.0003H17.4894V17.3337H20.1561C20.4201 17.3386 20.6823 17.2902 20.9272 17.1914C21.172 17.0926 21.3945 16.9455 21.5812 16.7588C21.7679 16.5721 21.915 16.3496 22.0138 16.1048C22.1126 15.8599 22.1609 15.5977 22.1561 15.3337V14.0003C22.1609 13.7363 22.1126 13.4741 22.0138 13.2292C21.915 12.9844 21.7679 12.7619 21.5812 12.5752C21.3945 12.3885 21.172 12.2414 20.9272 12.1426C20.6823 12.0438 20.4201 11.9955 20.1561 12.0003ZM20.1561 15.3337H17.4894V14.0003H20.1561V15.3337ZM24.4974 12.0003H26.4974V20.0003H24.4974V12.0003Z" fill="white"/>
<path d="M29.8333 8.00065V24.0007H3.16667V8.00065H29.8333ZM29.8333 5.33398H3.16667C2.45942 5.33398 1.78115 5.61494 1.28105 6.11503C0.780952 6.61513 0.5 7.29341 0.5 8.00065L0.5 24.0007C0.5 24.7079 0.780952 25.3862 1.28105 25.8863C1.78115 26.3864 2.45942 26.6673 3.16667 26.6673H29.8333C30.5406 26.6673 31.2189 26.3864 31.719 25.8863C32.219 25.3862 32.5 24.7079 32.5 24.0007V8.00065C32.5 7.29341 32.219 6.61513 31.719 6.11503C31.2189 5.61494 30.5406 5.33398 29.8333 5.33398Z" fill="white"/>
</g>
<defs>
<clipPath id="clip0_3_58">
<rect width="32" height="32" fill="white" transform="translate(0.5)"/>
</clipPath>
</defs>
</svg>
