<svg width="32" height="32" viewBox="0 0 32 32" fill="none" xmlns="http://www.w3.org/2000/svg">
<path d="M15 16C15 16.2652 14.8946 16.5196 14.7071 16.7071C14.5196 16.8946 14.2652 17 14 17H8C7.73478 17 7.48043 16.8946 7.29289 16.7071C7.10536 16.5196 7 16.2652 7 16C7 15.7348 7.10536 15.4804 7.29289 15.2929C7.48043 15.1054 7.73478 15 8 15H14C14.2652 15 14.5196 15.1054 14.7071 15.2929C14.8946 15.4804 15 15.7348 15 16ZM14 11H8C7.73478 11 7.48043 11.1054 7.29289 11.2929C7.10536 11.4804 7 11.7348 7 12C7 12.2652 7.10536 12.5196 7.29289 12.7071C7.48043 12.8946 7.73478 13 8 13H14C14.2652 13 14.5196 12.8946 14.7071 12.7071C14.8946 12.5196 15 12.2652 15 12C15 11.7348 14.8946 11.4804 14.7071 11.2929C14.5196 11.1054 14.2652 11 14 11ZM28 19.1838V27C28.0016 27.1763 27.9565 27.3499 27.8694 27.5032C27.7823 27.6564 27.6562 27.7839 27.5039 27.8728C27.3516 27.9616 27.1786 28.0086 27.0023 28.009C26.826 28.0094 26.6527 27.9632 26.5 27.875L23.5 26.1575L20.5 27.875C20.3473 27.9632 20.174 28.0094 19.9977 28.009C19.8214 28.0086 19.6484 27.9616 19.4961 27.8728C19.3438 27.7839 19.2177 27.6564 19.1306 27.5032C19.0435 27.3499 18.9984 27.1763 19 27V24H4C3.46957 24 2.96086 23.7893 2.58579 23.4142C2.21071 23.0391 2 22.5304 2 22V6C2 5.46957 2.21071 4.96086 2.58579 4.58579C2.96086 4.21071 3.46957 4 4 4H26C26.5304 4 27.0391 4.21071 27.4142 4.58579C27.7893 4.96086 28 5.46957 28 6V9.81625C28.6321 10.4216 29.1352 11.1487 29.4789 11.9536C29.8225 12.7586 29.9997 13.6248 29.9997 14.5C29.9997 15.3752 29.8225 16.2414 29.4789 17.0464C29.1352 17.8513 28.6321 18.5784 28 19.1838ZM19 22V19.1838C17.9103 18.1328 17.2216 16.7344 17.0527 15.2299C16.8839 13.7254 17.2456 12.2091 18.0753 10.9428C18.905 9.67645 20.1507 8.73945 21.5975 8.29348C23.0443 7.84751 24.6013 7.92055 26 8.5V6H4V22H19ZM26 20.5C25.208 20.8309 24.3583 21.0013 23.5 21.0013C22.6417 21.0013 21.792 20.8309 21 20.5V25.2775L23 24.1325C23.1511 24.0461 23.3222 24.0007 23.4963 24.0007C23.6703 24.0007 23.8414 24.0461 23.9925 24.1325L25.9925 25.2775L26 20.5ZM28 14.5C28 13.61 27.7361 12.74 27.2416 11.9999C26.7471 11.2599 26.0443 10.6831 25.2221 10.3425C24.3998 10.0019 23.495 9.91283 22.6221 10.0865C21.7492 10.2601 20.9474 10.6887 20.318 11.318C19.6887 11.9474 19.2601 12.7492 19.0865 13.6221C18.9128 14.495 19.0019 15.3998 19.3425 16.2221C19.6831 17.0443 20.2599 17.7471 20.9999 18.2416C21.74 18.7361 22.61 19 23.5 19C24.0909 19 24.6761 18.8836 25.2221 18.6575C25.768 18.4313 26.2641 18.0998 26.682 17.682C27.0998 17.2641 27.4313 16.768 27.6575 16.2221C27.8836 15.6761 28 15.0909 28 14.5Z" fill="white"/>
</svg>
