<svg width="32" height="32" viewBox="0 0 32 32" fill="none" xmlns="http://www.w3.org/2000/svg">
<path d="M3.20312 5.59602C3.20312 4.27122 4.27673 3.19922 5.60313 3.19922H7.20312C8.52633 3.19922 9.60153 4.27122 9.60153 5.59602V26.3672C9.60153 27.6904 8.52633 28.7624 7.20153 28.7624H5.60153C4.27673 28.7624 3.20312 27.6904 3.20312 26.3672V5.59602ZM5.60313 4.79602C5.39095 4.79602 5.18747 4.8803 5.03744 5.03033C4.88741 5.18036 4.80313 5.38385 4.80313 5.59602V26.3672C4.80355 26.5791 4.88802 26.7822 5.038 26.9319C5.18799 27.0816 5.39123 27.1656 5.60313 27.1656H7.20312C7.41502 27.1652 7.61809 27.0807 7.76778 26.9307C7.91746 26.7808 8.00153 26.5775 8.00153 26.3656V5.59762C8.00153 5.38545 7.91724 5.18196 7.76721 5.03193C7.61718 4.8819 7.4137 4.79762 7.20153 4.79762L5.60313 4.79602ZM11.1999 5.59602C11.1999 4.27122 12.2751 3.19922 13.5999 3.19922H15.1999C16.5247 3.19922 17.5983 4.27122 17.5983 5.59602V26.3672C17.5983 27.6904 16.5247 28.7624 15.1983 28.7624H13.5983C12.2751 28.7624 11.1999 27.6904 11.1999 26.3672V5.59602ZM13.5999 4.79602C13.3878 4.79602 13.1843 4.8803 13.0342 5.03033C12.8842 5.18036 12.7999 5.38385 12.7999 5.59602V26.3672C12.8003 26.5791 12.8848 26.7822 13.0348 26.9319C13.1848 27.0816 13.388 27.1656 13.5999 27.1656H15.1999C15.4121 27.1656 15.6156 27.0813 15.7656 26.9313C15.9156 26.7813 15.9999 26.5778 15.9999 26.3656V5.59762C15.9999 5.38545 15.9156 5.18196 15.7656 5.03193C15.6156 4.8819 15.4121 4.79762 15.1999 4.79762L13.5999 4.79602ZM25.1519 9.85042C25.0788 9.53369 24.9421 9.23511 24.7502 8.97279C24.5582 8.71047 24.315 8.48988 24.0352 8.3244C23.7554 8.15892 23.4449 8.05201 23.1225 8.01014C22.8002 7.96826 22.4727 7.99231 22.1599 8.08082L20.9679 8.41682C20.3863 8.58212 19.8885 8.96085 19.5741 9.4773C19.2597 9.99374 19.1517 10.6098 19.2719 11.2024L22.4767 26.8824C22.5422 27.2002 22.6714 27.5014 22.8566 27.7678C23.0418 28.0343 23.279 28.2604 23.5541 28.4325C23.8291 28.6046 24.1362 28.7192 24.4567 28.7693C24.7773 28.8194 25.1047 28.804 25.4191 28.724L26.9951 28.324C28.2591 28.004 29.0335 26.7336 28.7423 25.4648L25.1519 9.85042ZM22.5951 9.61842C22.6994 9.58874 22.8086 9.58055 22.9161 9.59436C23.0236 9.60817 23.1272 9.64369 23.2206 9.69875C23.3139 9.75382 23.3951 9.82728 23.4593 9.91469C23.5234 10.0021 23.5691 10.1016 23.5935 10.2072L27.1823 25.8232C27.2284 26.0265 27.1933 26.2397 27.0845 26.4175C26.9758 26.5954 26.8019 26.7237 26.5999 26.7752L25.0239 27.1752C24.9192 27.2019 24.8101 27.2071 24.7033 27.1904C24.5965 27.1738 24.4942 27.1357 24.4026 27.0784C24.3109 27.0212 24.2318 26.9459 24.17 26.8572C24.1082 26.7685 24.0651 26.6682 24.0431 26.5624L20.8383 10.8824C20.7984 10.685 20.8344 10.4799 20.9391 10.3079C21.0437 10.1358 21.2095 10.0096 21.4031 9.95442L22.5951 9.61842Z" fill="white"/>
</svg>
