<svg width="33" height="32" viewBox="0 0 33 32" fill="none" xmlns="http://www.w3.org/2000/svg">
<path d="M5.83333 14.6667H13.8333C14.187 14.6667 14.5261 14.5262 14.7761 14.2761C15.0262 14.0261 15.1667 13.687 15.1667 13.3333V5.33333C15.1667 4.97971 15.0262 4.64057 14.7761 4.39052C14.5261 4.14048 14.187 4 13.8333 4H5.83333C5.47971 4 5.14057 4.14048 4.89052 4.39052C4.64048 4.64057 4.5 4.97971 4.5 5.33333V13.3333C4.5 13.687 4.64048 14.0261 4.89052 14.2761C5.14057 14.5262 5.47971 14.6667 5.83333 14.6667ZM7.16667 6.66667H12.5V12H7.16667V6.66667ZM27.1667 4H19.1667C18.813 4 18.4739 4.14048 18.2239 4.39052C17.9738 4.64057 17.8333 4.97971 17.8333 5.33333V13.3333C17.8333 13.687 17.9738 14.0261 18.2239 14.2761C18.4739 14.5262 18.813 14.6667 19.1667 14.6667H27.1667C27.5203 14.6667 27.8594 14.5262 28.1095 14.2761C28.3595 14.0261 28.5 13.687 28.5 13.3333V5.33333C28.5 4.97971 28.3595 4.64057 28.1095 4.39052C27.8594 4.14048 27.5203 4 27.1667 4ZM25.8333 12H20.5V6.66667H25.8333V12ZM13.8333 28C14.187 28 14.5261 27.8595 14.7761 27.6095C15.0262 27.3594 15.1667 27.0203 15.1667 26.6667V18.6667C15.1667 18.313 15.0262 17.9739 14.7761 17.7239C14.5261 17.4738 14.187 17.3333 13.8333 17.3333H5.83333C5.47971 17.3333 5.14057 17.4738 4.89052 17.7239C4.64048 17.9739 4.5 18.313 4.5 18.6667V26.6667C4.5 27.0203 4.64048 27.3594 4.89052 27.6095C5.14057 27.8595 5.47971 28 5.83333 28H13.8333ZM7.16667 20H12.5V25.3333H7.16667V20ZM24.5 18.6667H21.8333V21.3333H19.1667V24H21.8333V26.6667H24.5V24H27.1667V21.3333H24.5V18.6667Z" fill="white"/>
</svg>
