<svg width="33" height="32" viewBox="0 0 33 32" fill="none" xmlns="http://www.w3.org/2000/svg">
<g clip-path="url(#clip0_3_63)">
<path d="M16.4102 15.3781C18.8102 15.3781 20.6769 13.4225 20.6769 11.0225C20.6769 8.62253 18.7214 6.75586 16.3214 6.75586C13.9214 6.75586 12.0547 8.71141 12.0547 11.0225C12.0547 13.4225 14.0102 15.3781 16.4102 15.3781ZM16.3214 8.53364C16.4102 8.53364 16.4102 8.53364 16.3214 8.53364C17.7436 8.53364 18.8991 9.68919 18.8991 11.1114C18.8991 12.5336 17.7436 13.6003 16.3214 13.6003C14.8991 13.6003 13.8325 12.4447 13.8325 11.1114C13.8325 9.68919 14.988 8.53364 16.3214 8.53364Z" fill="white"/>
<path d="M29.5693 14.8441C27.8804 13.333 25.6582 12.533 23.347 12.6219H22.6359C22.4582 13.333 22.1915 13.9553 21.8359 14.4886C22.3693 14.3997 22.8137 14.3997 23.347 14.3997C25.0359 14.3108 26.7248 14.8441 28.0582 15.8219V22.2219H29.8359V15.1108L29.5693 14.8441Z" fill="white"/>
<path d="M21.2991 6.93338C21.7436 5.86671 22.988 5.33338 24.1436 5.77782C25.2102 6.22227 25.7436 7.46671 25.2991 8.62227C24.9436 9.42227 24.1436 9.9556 23.3436 9.9556C23.1658 9.9556 22.8991 9.9556 22.7214 9.86671C22.8102 10.3112 22.8102 10.7556 22.8102 11.1112V11.6445C22.988 11.6445 23.1658 11.7334 23.3436 11.7334C25.5658 11.7334 27.3436 9.9556 27.3436 7.82227C27.3436 5.60004 25.5658 3.82227 23.4325 3.82227C22.0102 3.82227 20.7658 4.53338 20.0547 5.77782C20.4991 6.04449 20.9436 6.40004 21.2991 6.93338Z" fill="white"/>
<path d="M11.1641 14.5784C10.8085 14.0451 10.5418 13.4229 10.3641 12.7118H9.65295C7.34184 12.6229 5.11962 13.4229 3.43073 14.8451L3.16406 15.1118V22.2229H4.94184V15.8229C6.36406 14.8451 7.96406 14.3118 9.65295 14.4007C10.1863 14.4007 10.7196 14.4896 11.1641 14.5784Z" fill="white"/>
<path d="M9.65622 11.6455C9.834 11.6455 10.0118 11.6455 10.1896 11.5566V11.0232C10.1896 10.5788 10.1896 10.1343 10.2784 9.77879C10.1007 9.86768 9.834 9.86768 9.65622 9.86768C8.50066 9.86768 7.52288 8.8899 7.52288 7.73434C7.52288 6.57879 8.50066 5.60101 9.65622 5.60101C10.5451 5.60101 11.3451 6.13434 11.7007 6.93434C12.0562 6.4899 12.5896 6.04545 13.034 5.6899C11.8784 3.82323 9.47844 3.20101 7.61177 4.35657C5.74511 5.51212 5.12288 7.91212 6.27844 9.77879C6.98955 10.9343 8.234 11.6455 9.65622 11.6455Z" fill="white"/>
<path d="M23.7017 20.1784L23.524 19.9118C21.7462 17.9562 19.2573 16.8007 16.5906 16.8895C13.924 16.8007 11.3462 17.9562 9.5684 19.9118L9.39062 20.1784V26.934C9.39062 27.734 10.0128 28.4451 10.9017 28.4451H22.2795C23.0795 28.4451 23.7906 27.734 23.7906 26.934V20.1784H23.7017ZM21.924 26.6673H11.1684V20.8007C12.5906 19.3784 14.5462 18.6673 16.5906 18.6673C18.5462 18.5784 20.5017 19.3784 21.924 20.8007V26.6673Z" fill="white"/>
</g>
<defs>
<clipPath id="clip0_3_63">
<rect width="32" height="32" fill="white" transform="translate(0.5)"/>
</clipPath>
</defs>
</svg>
