<svg width="32" height="32" viewBox="0 0 32 32" fill="none" xmlns="http://www.w3.org/2000/svg">
<path d="M25.3307 28C24.4641 28 23.6863 27.7502 22.9974 27.2507C22.3085 26.7511 21.8307 26.112 21.5641 25.3333H14.6641C13.1974 25.3333 11.9418 24.8111 10.8974 23.7667C9.85295 22.7222 9.33073 21.4667 9.33073 20C9.33073 18.5333 9.85295 17.2778 10.8974 16.2333C11.9418 15.1889 13.1974 14.6667 14.6641 14.6667H17.3307C18.0641 14.6667 18.6921 14.4058 19.2147 13.884C19.7374 13.3622 19.9983 12.7342 19.9974 12C19.9965 11.2658 19.7356 10.6382 19.2147 10.1173C18.6938 9.59644 18.0658 9.33511 17.3307 9.33333H10.4307C10.1418 10.1111 9.65828 10.7502 8.98006 11.2507C8.30184 11.7511 7.52984 12.0009 6.66406 12C5.55295 12 4.60851 11.6111 3.83073 10.8333C3.05295 10.0556 2.66406 9.11111 2.66406 8C2.66406 6.88889 3.05295 5.94444 3.83073 5.16667C4.60851 4.38889 5.55295 4 6.66406 4C7.53073 4 8.30317 4.25022 8.9814 4.75067C9.65962 5.25111 10.1427 5.88978 10.4307 6.66667H17.3307C18.7974 6.66667 20.0529 7.18889 21.0974 8.23333C22.1418 9.27778 22.6641 10.5333 22.6641 12C22.6641 13.4667 22.1418 14.7222 21.0974 15.7667C20.0529 16.8111 18.7974 17.3333 17.3307 17.3333H14.6641C13.9307 17.3333 13.3032 17.5947 12.7814 18.1173C12.2596 18.64 11.9983 19.2676 11.9974 20C11.9965 20.7324 12.2578 21.3604 12.7814 21.884C13.305 22.4076 13.9325 22.6684 14.6641 22.6667H21.5641C21.8529 21.8889 22.3365 21.2502 23.0147 20.7507C23.693 20.2511 24.465 20.0009 25.3307 20C26.4418 20 27.3863 20.3889 28.1641 21.1667C28.9418 21.9444 29.3307 22.8889 29.3307 24C29.3307 25.1111 28.9418 26.0556 28.1641 26.8333C27.3863 27.6111 26.4418 28 25.3307 28ZM6.66406 9.33333C7.04184 9.33333 7.35873 9.20533 7.61473 8.94933C7.87073 8.69333 7.99828 8.37689 7.9974 8C7.99651 7.62311 7.86851 7.30667 7.6134 7.05067C7.35828 6.79467 7.04184 6.66667 6.66406 6.66667C6.28628 6.66667 5.96984 6.79467 5.71473 7.05067C5.45962 7.30667 5.33162 7.62311 5.33073 8C5.32984 8.37689 5.45784 8.69378 5.71473 8.95067C5.97162 9.20756 6.28806 9.33511 6.66406 9.33333Z" fill="white"/>
</svg>
