<svg width="32" height="32" viewBox="0 0 32 32" fill="none" xmlns="http://www.w3.org/2000/svg">
<path d="M17.6932 2.67231C17.5594 2.66838 17.4262 2.69134 17.3015 2.73984C17.1767 2.78833 17.063 2.86137 16.967 2.95462C16.871 3.04787 16.7947 3.15945 16.7427 3.28272C16.6906 3.406 16.6638 3.53848 16.6638 3.67231V14.3336C16.6638 14.8856 17.1118 15.3336 17.6638 15.3336H28.3252C28.459 15.3337 28.5915 15.3069 28.7147 15.2548C28.838 15.2027 28.9496 15.1264 29.0428 15.0305C29.1361 14.9345 29.2091 14.8207 29.2576 14.696C29.3061 14.5713 29.3291 14.4381 29.3252 14.3043C29.2328 11.2486 27.9776 8.34327 25.8159 6.18155C23.6542 4.01982 20.7489 2.76466 17.6932 2.67231ZM18.6638 13.3336V4.75497C20.836 5.04785 22.8519 6.04589 24.4017 7.59574C25.9516 9.14559 26.9496 11.1615 27.2425 13.3336H18.6638ZM14.6638 6.37897C14.6638 6.24012 14.6349 6.10279 14.5789 5.97573C14.5229 5.84866 14.4411 5.73465 14.3386 5.64096C14.2361 5.54726 14.1153 5.47593 13.9837 5.43152C13.8522 5.3871 13.7128 5.37057 13.5745 5.38297C11.3034 5.59004 9.1383 6.43998 7.33285 7.83323C5.5274 9.22649 4.15634 11.1054 3.38027 13.2498C2.6042 15.3942 2.45526 17.7154 2.95089 19.9414C3.44652 22.1674 4.5662 24.2061 6.17878 25.8187C7.79136 27.4313 9.83006 28.5509 12.0561 29.0466C14.2821 29.5422 16.6033 29.3933 18.7477 28.6172C20.8921 27.8411 22.771 26.4701 24.1642 24.6646C25.5575 22.8592 26.4074 20.6941 26.6145 18.423C26.6269 18.2847 26.6104 18.1453 26.566 18.0138C26.5215 17.8822 26.4502 17.7613 26.3565 17.6589C26.2628 17.5564 26.1488 17.4745 26.0217 17.4185C25.8947 17.3626 25.7573 17.3336 25.6185 17.3336H14.6638V6.37897ZM4.66383 17.3336C4.66336 15.0283 5.4594 12.7937 6.91722 11.0078C8.37504 9.222 10.4051 7.9947 12.6638 7.53364V18.3336C12.6638 18.8856 13.1118 19.3336 13.6638 19.3336H24.4638C23.9703 21.7639 22.5914 23.9242 20.5948 25.395C18.5981 26.8658 16.1262 27.5423 13.6588 27.2931C11.1915 27.0438 8.90476 25.8867 7.24258 24.0463C5.58039 22.2059 4.66134 19.8135 4.66383 17.3336Z" fill="white"/>
</svg>
