<svg width="33" height="32" viewBox="0 0 33 32" fill="none" xmlns="http://www.w3.org/2000/svg">
<path d="M16.5026 5.33398C17.9171 5.33398 19.2736 5.89589 20.2738 6.89608C21.274 7.89628 21.8359 9.25283 21.8359 10.6673C21.8359 12.0818 21.274 13.4384 20.2738 14.4386C19.2736 15.4387 17.9171 16.0007 16.5026 16.0007C15.0881 16.0007 13.7316 15.4387 12.7314 14.4386C11.7312 13.4384 11.1693 12.0818 11.1693 10.6673C11.1693 9.25283 11.7312 7.89628 12.7314 6.89608C13.7316 5.89589 15.0881 5.33398 16.5026 5.33398ZM16.5026 8.00065C15.7954 8.00065 15.1171 8.2816 14.617 8.7817C14.1169 9.2818 13.8359 9.96007 13.8359 10.6673C13.8359 11.3746 14.1169 12.0528 14.617 12.5529C15.1171 13.053 15.7954 13.334 16.5026 13.334C17.2098 13.334 17.8881 13.053 18.3882 12.5529C18.8883 12.0528 19.1693 11.3746 19.1693 10.6673C19.1693 9.96007 18.8883 9.2818 18.3882 8.7817C17.8881 8.2816 17.2098 8.00065 16.5026 8.00065ZM16.5026 17.334C20.0626 17.334 27.1693 19.1073 27.1693 22.6673V26.6673H5.83594V22.6673C5.83594 19.1073 12.9426 17.334 16.5026 17.334ZM16.5026 19.8673C12.5426 19.8673 8.36927 21.814 8.36927 22.6673V24.134H24.6359V22.6673C24.6359 21.814 20.4626 19.8673 16.5026 19.8673Z" fill="white"/>
</svg>
